<svg xmlns="http://www.w3.org/2000/svg" width="256" height="256"><path fill-opacity=".016" d="M0 128.004v128.004l128.25-.254 128.25-.254.254-127.75L257.008 0H0v128.004m.485.496c0 70.4.119 99.053.265 63.672.146-35.38.146-92.98 0-128C.604 29.153.485 58.1.485 128.5" fill="#1976D2" fill-rule="evenodd"/><path fill-opacity=".127" d="M89.655 45.829c-.91 1.006-1.655 2.75-1.655 3.877 0 4.409 1.898 4.766 28.158 5.294l24.856.5-5.757 7.987c-3.166 4.392-24.766 33.867-48 65.5-23.233 31.632-42.245 58.214-42.25 59.072-.004.857.632 2.432 1.412 3.5 1.378 1.885 3.429 1.948 71.25 2.187 54.847.194 70.367-.026 72.331-1.023 3.151-1.6 3.779-5.708 1.227-8.018-1.707-1.544-7.406-1.712-65.979-1.948l-64.111-.257 5.74-8 5.74-8 62.142-.5c39.53-.318 62.464-.864 63.026-1.5.486-.55 7.098-9.55 14.694-20 7.595-10.45 15.473-21.25 17.507-24 3.768-5.096 10.218-13.887 20.352-27.74 5.963-8.152 6.841-11.383 3.833-14.105-1.656-1.499-7.17-1.655-58.5-1.655-31.169 0-56.671-.213-56.671-.473 0-.259 4.099-5.997 9.109-12.75 5.01-6.752 9.334-12.843 9.61-13.535.275-.691-.234-2.379-1.132-3.75L154.954 44h-31.822c-29.559 0-31.94.13-33.477 1.829M33 87c-2.541 2.541-2.53 4.47.04 7.04 1.98 1.98 2.966 2.031 33.951 1.75 22.767-.207 32.248-.627 33.085-1.465 1.782-1.784 1.403-6.501-.642-7.997C98.016 85.291 90.758 85 66.309 85c-29.976 0-31.394.085-33.309 2m85.972 16.619C91.981 140.37 82 154.117 82 154.545c0 .25 24.688.455 54.863.455h54.862l4.973-6.75C220.526 115.906 240 89.075 240 88.589c0-.324-24.65-.589-54.778-.589h-54.779l-11.471 15.619M3.223 105.557c-2.708 1.896-2.878 5.54-.365 7.814 1.605 1.453 4.01 1.644 17.713 1.405l15.855-.276 1.512-2.696c1.417-2.527 1.361-2.856-.887-5.25C34.69 104.041 34.414 104 20.048 104c-11.598 0-15.06.32-16.825 1.557m46.232.898c-2.976 2.975-3.044 3.956-.455 6.545 1.859 1.859 3.333 2 20.929 2C90.425 115 92 114.606 92 109.485c0-4.78-2.862-5.485-22.268-5.485-17.59 0-17.855.032-20.277 2.455m97 0c-1.35 1.35-2.455 3.62-2.455 5.045 0 3.478 4.164 7.5 7.766 7.5 6.994 0 9.901-8.011 4.627-12.75-3.26-2.929-6.88-2.854-9.938.205M181 107.5c-5.961 1.886-11.369 6.408-10.463 8.75.828 2.141 2.166 2.19 6.809.25 6.217-2.598 13.004-1.398 16.599 2.934 3.436 4.139 10.117-.511 8.153-5.675-1.059-2.787-7.521-6.317-13.098-7.156-1.925-.29-5.525.114-8 .897m-54.064 15.077c-1.811 2.183 1.056 7.352 7.026 12.665 15.385 13.69 36.27 12.749 53.492-2.411 7.873-6.929 4.255-11.829-4.604-6.236-9.562 6.036-14.818 7.761-23.85 7.828-7.379.055-9.179-.294-13.65-2.646-2.833-1.49-7.248-4.525-9.811-6.743-5.093-4.408-6.621-4.845-8.603-2.457m-116.901 6.357c-1.452 2.713-1.29 4.668.536 6.495 1.362 1.362 5.768 1.571 33.066 1.571 19.798 0 32.213-.384 33.429-1.035 2.192-1.173 2.635-5.864.734-7.765-.885-.885-9.814-1.2-33.965-1.2-31.37 0-32.809.082-33.8 1.934M22.2 147.2c-1.547 1.547-1.547 6.053 0 7.6.797.797 5.14 1.2 12.929 1.2 9.329 0 12.05-.322 13.3-1.571 2.172-2.173 1.977-6.141-.363-7.394-2.774-1.484-24.354-1.347-25.866.165m26.2 54.2c-3.745 3.745-4.193 6.023-1.843 9.377 2.373 3.388 7.51 3.002 11.366-.854 3.566-3.566 3.945-7.055 1.077-9.923-3.003-3.003-6.682-2.518-10.6 1.4m123 0c-3.745 3.745-4.193 6.023-1.843 9.377 2.42 3.455 7.88 3.038 11.542-.883 3.391-3.63 3.706-7.089.901-9.894-3.003-3.003-6.682-2.518-10.6 1.4" fill="#1976D2" fill-rule="evenodd"/><path fill-opacity=".165" d="M89.667 45.667c-1.105 1.105-.75 5.85.533 7.133.87.87 8.156 1.2 26.5 1.2 13.915 0 25.29.337 25.277.75-.013.413-21.613 30.134-48 66.049C64.22 161.299 46 186.953 46 188.349c0 1.238.54 2.791 1.2 3.451.911.911 18.262 1.2 71.977 1.2h70.777l1.594-2.433c1.24-1.892 1.348-2.892.488-4.5-1.101-2.057-1.429-2.067-65.905-2.067-35.638 0-65.062-.265-65.386-.588-.324-.324 2.344-4.599 5.928-9.5L73.189 165h123.568l21.763-29.75c11.969-16.363 23.654-32.225 25.967-35.25 2.312-3.025 5.917-8.095 8.011-11.267 3.341-5.06 3.669-6.071 2.676-8.25L254.043 78h-58.022C164.11 78 138 77.719 138 77.376c0-.344 4.275-6.479 9.5-13.634 5.225-7.154 9.5-13.758 9.5-14.675 0-3.909-1.342-4.067-34.533-4.067-17.674 0-32.434.3-32.8.667M33.2 87.2c-1.543 1.543-1.543 5.057 0 6.6 1.717 1.717 64.883 1.717 66.6 0 1.543-1.543 1.543-5.057 0-6.6-1.717-1.717-64.883-1.717-66.6 0m91.63 7.556a40580.756 40580.756 0 0 1-24.345 33.159c-10.271 13.978-18.905 26.015-19.187 26.75-.423 1.104 9.097 1.335 54.908 1.335h55.421l24.229-33.03c13.327-18.167 24.484-33.692 24.794-34.5.492-1.282-6.5-1.469-54.793-1.464l-55.357.006-5.67 7.744M3.2 106.2c-1.543 1.543-1.543 5.057 0 6.6 1.68 1.68 31.92 1.68 33.6 0 1.661-1.661 1.5-4.357-.371-6.229-1.291-1.291-4.29-1.571-16.8-1.571-10.512 0-15.601.372-16.429 1.2m46.371.371c-1.871 1.872-2.032 4.568-.371 6.229 1.695 1.695 39.905 1.695 41.6 0 1.733-1.733 1.476-4.24-.629-6.145-2.664-2.411-38.199-2.484-40.6-.084m97.652-.014c-3.253 2.278-3.039 7.656.412 10.37 3.219 2.532 5.495 2.622 8.212.323 7.07-5.982-1.024-16.017-8.624-10.693m32.321 2.032c-6.4 2.344-10.75 7.509-7.294 8.661.687.229 3.225-.457 5.639-1.525 5.528-2.446 9.563-1.859 15.176 2.207 3.825 2.771 4.483 2.949 6.351 1.716 3.266-2.155 3.214-6.071-.11-8.387-6.203-4.322-12.814-5.216-19.762-2.672m-51.877 14.078c-2.76 2.759 5.177 12.372 14.175 17.168 11.739 6.257 21.552 6.181 34.658-.266 10.894-5.36 18.73-14.323 13.416-15.347-.858-.165-4.666 1.515-8.462 3.733-10.025 5.858-15.175 7.318-24.272 6.882-8.889-.426-14.545-2.763-21.498-8.884-4.306-3.79-6.581-4.723-8.017-3.286m-117.11 6.556c-2.004 2.86-1.965 3.369.443 5.777 1.913 1.913 3.333 2 32.777 2 26.238 0 31.106-.23 33-1.557 2.699-1.89 2.854-4.562.394-6.788-1.62-1.467-5.429-1.655-33.443-1.655-31.536 0-31.618.006-33.171 2.223m12.014 18.348c-2.087 2.088-1.987 4.743.258 6.774C24.28 155.658 26.772 156 34.894 156 46.679 156 49 155.177 49 151c0-4.192-2.32-5-14.363-5-8.207 0-10.837.343-12.066 1.571m26.065 54.065c-3.415 3.416-3.516 7.741-.231 9.894 2.142 1.403 2.791 1.415 5.92.108 3.819-1.596 5.675-4.17 5.675-7.872 0-5.35-6.859-6.635-11.364-2.13m122.816.01c-3.215 3.469-3.235 7.795-.047 9.884 2.142 1.403 2.791 1.415 5.92.108 5.141-2.148 7.566-8.347 4.475-11.438-2.194-2.194-7.686-1.426-10.348 1.446" fill="#1976D2" fill-rule="evenodd"/><path fill-opacity=".12" d="M90.011 46.487c-.708.853-.965 2.559-.604 4L90.038 53h26.588c22.813 0 26.509.206 26.032 1.45-.545 1.419-13.223 18.992-31.158 43.184A3334.58 3334.58 0 0 0 94 121.503c-9.07 12.515-25.931 35.487-34.493 46.997-2.864 3.85-7.175 9.829-9.579 13.286-7.355 10.574-13.521 9.714 69.681 9.714H191.5l.327-2.305c.763-5.381 3.158-5.195-66.949-5.195C89.14 184 60 183.612 60 183.137s2.291-3.963 5.092-7.75c2.8-3.788 5.516-7.674 6.035-8.637.883-1.637 4.876-1.75 61.974-1.75 39.355 0 61.704-.36 62.926-1.014 1.043-.558 4.538-4.721 7.768-9.25 3.23-4.53 16.094-22.151 28.588-39.159 17.8-24.231 22.652-31.481 22.417-33.5l-.3-2.577-57.958-.258c-31.877-.142-58.351-.651-58.832-1.132-.498-.498 1.014-3.397 3.515-6.742 13.23-17.691 14.756-20.018 14.765-22.511.006-1.494-.677-2.907-1.572-3.25-.87-.334-15.44-.607-32.377-.607-26.035 0-30.987.23-32.03 1.487M32.832 88.47c-.863 1.893-.827 2.831.155 4.014 1.114 1.343 5.504 1.509 33.897 1.279L99.5 93.5l.327-2.305c.729-5.144.395-5.195-33.971-5.195H33.957l-1.125 2.47m86.66 12.78A8204.931 8204.931 0 0 0 102.81 124a4291.933 4291.933 0 0 1-14.503 19.729C83.738 149.906 80 155.193 80 155.479c0 .287 25.313.502 56.25.48l56.25-.041 8.438-11.709a2815.071 2815.071 0 0 1 15.078-20.709C231.954 101.895 242 87.98 242 87.508c0-.279-25.205-.508-56.011-.508h-56.01l-10.487 14.25m28.494 5.56c-4.141 3.353-1.727 11.19 3.446 11.19 5.869 0 8.715-6.853 4.568-11-2.482-2.482-5.106-2.544-8.014-.19m-144.762.366c-1.558 1.558-1.568 4.08-.024 5.624 1.405 1.405 30.471 1.695 32.63.326.756-.479 1.188-2.092 1-3.735l-.33-2.891-16.026-.274c-11.62-.198-16.363.063-17.25.95m46.463-.529c-1.104 1.103-.791 4.849.513 6.153.848.848 6.684 1.2 19.878 1.2 20.093 0 21.437-.337 20.749-5.195L90.5 106.5l-20.063-.27c-11.035-.149-20.372.039-20.75.417m133.497 1.504c-5.589.993-11.184 4.46-11.184 6.931 0 2.26 1.551 2.39 5 .418 1.375-.786 4.576-1.445 7.112-1.465 3.652-.028 5.4.59 8.388 2.965 2.076 1.65 4.356 3 5.066 3 1.688 0 4.434-2.776 4.434-4.483 0-1.285-5.434-6.492-6.827-6.541-.37-.013-2.248-.376-4.173-.808-1.925-.431-5.442-.438-7.816-.017m-55.517 14.516c-1.544 1.543-.357 3.807 4.871 9.288 7.823 8.201 15.283 11.485 25.962 11.428 5.862-.031 9.557-.649 13.824-2.312 6.825-2.66 17.994-10.766 18.507-13.431.709-3.684-1.434-3.733-7.35-.17-12.436 7.488-22.416 9.687-32.379 7.135-6.147-1.575-14.989-6.612-18.589-10.591-1.855-2.05-3.646-2.548-4.846-1.347M11.2 129.2c-1.536 1.536-1.536 4.064 0 5.6 1.716 1.716 63.884 1.716 65.6 0 1.714-1.714 1.482-5.478-.382-6.193-.87-.334-15.63-.607-32.8-.607-22.947 0-31.536.318-32.418 1.2m11.496 18.437c-.383.383-.696 1.963-.696 3.511 0 3.626 1.597 4.017 14.894 3.644 8.609-.242 10.582-.593 11.495-2.042.801-1.274.801-2.226-.001-3.5-.931-1.479-2.949-1.793-13.049-2.029-6.571-.154-12.26.034-12.643.416m28.067 52.928c-3.869 2.1-5.379 8.775-2.413 10.67 2.396 1.53 5.907.662 8.727-2.158 3.49-3.491 3.73-6.399.7-8.52-2.703-1.894-3.511-1.893-7.014.008m123 0c-3.869 2.1-5.379 8.775-2.413 10.67 2.267 1.448 6.338.725 8.361-1.485 3.264-3.566 3.692-6.347 1.34-8.699-2.41-2.41-3.597-2.489-7.288-.486" fill="#1976D2" fill-rule="evenodd"/></svg>