<svg xmlns="http://www.w3.org/2000/svg" width="256" height="256"><path fill-opacity=".016" d="M0 128.004v128.004l128.25-.254 128.25-.254.254-127.75L257.008 0H0v128.004m.485.496c0 70.4.119 99.053.265 63.672.146-35.38.146-92.98 0-128C.604 29.153.485 58.1.485 128.5" fill="#1976D2" fill-rule="evenodd"/><path fill-opacity=".095" d="M96.2 54.2c-1.837 1.837-1.428 5.608.734 6.765 1.134.607 9.615 1.035 20.5 1.035 10.211 0 18.566.252 18.566.56 0 .308-16.709 23.324-37.132 51.147-20.423 27.822-37.336 51.368-37.586 52.323-.273 1.044.466 2.381 1.854 3.353 2.057 1.441 8.167 1.617 56.005 1.617 29.532 0 54.42-.278 55.305-.618 2.94-1.128 3.918-4.323 1.979-6.465-1.666-1.841-3.734-1.917-52.139-1.917H73.882l4.485-6.25 4.484-6.25 48.776-.5 48.777-.5 17.282-23.5 23.299-31.68c10.726-14.585 13.203-13.719-40.917-14.32l-45.006-.5 7.051-9.5c3.878-5.225 7.293-10.079 7.59-10.787.297-.708-.26-2.171-1.237-3.25-1.673-1.849-3.202-1.963-26.421-1.963-17.835 0-24.977.332-25.845 1.2M52.223 86.557c-2.702 1.892-2.817 3.595-.394 5.788C53.426 93.79 56.764 94 78.174 94c22.891 0 24.631-.127 26.251-1.917 1.939-2.142.961-5.337-1.979-6.465-.885-.34-12.048-.618-24.805-.618-19.376 0-23.562.256-25.418 1.557m69.159 10.693a45279.712 45279.712 0 0 1-19.077 26L90.007 140l43.247-.02 43.246-.021 18-24.635c9.9-13.549 18.36-25.24 18.8-25.979.664-1.118-6.453-1.345-42.17-1.345h-42.97l-6.778 9.25m-92.632 3.83c-2.094 1.22-2.304 5.215-.359 6.829.928.77 5.462 1.061 13.63.873 11.299-.26 12.35-.449 13.682-2.459 1.299-1.958 1.236-2.384-.63-4.25-1.856-1.856-3.251-2.07-13.323-2.043-6.187.017-12.038.489-13 1.05m36.147.803c-2.052 1.661-2.185 2.189-1.132 4.5L64.957 109h15.322C96.478 109 98 108.599 98 104.335c0-3.592-2.969-4.335-17.323-4.335-11.686 0-13.761.248-15.78 1.883M141 102c-2.496 2.496-2.571 6.173-.171 8.345 3.827 3.464 10.171.86 10.171-4.174 0-2.721-3.354-6.171-6-6.171-1.1 0-2.9.9-4 2m24.5 1.808c-5.055 2.37-7.251 4.841-5.69 6.402.834.834 2.135.823 5.024-.042 5.898-1.767 8.703-1.428 12.144 1.467 2.684 2.258 3.482 2.476 5.577 1.522 3.771-1.718 3.247-5.498-1.137-8.207-4.92-3.042-10.943-3.473-15.918-1.142m-39.833 10.859c-1.441 1.44-.493 3.566 3.543 7.945 11.797 12.798 28.314 13.106 43.322.808 4.614-3.781 5.28-5.208 3.335-7.153-.844-.844-3.157-.074-9.068 3.021-13.35 6.989-24.372 6.294-33.982-2.144-3.475-3.051-5.779-3.849-7.15-2.477M34.2 119.2c-1.86 1.86-1.423 4.531 1.023 6.243C37.08 126.744 41.279 127 60.788 127c14.179 0 24.103-.406 25.278-1.035 2.162-1.157 2.571-4.928.734-6.765-1.707-1.707-50.893-1.707-52.6 0m9 15c-.66.66-1.2 1.92-1.2 2.8 0 3.265 2.238 4 12.181 4 9.612 0 9.792-.043 10.412-2.513 1.127-4.492-.869-5.487-11.015-5.487-5.805 0-9.619.441-10.378 1.2m21.713 41.082c-.872.67-2.142 2.261-2.821 3.535-1.669 3.134.856 7.183 4.479 7.183 2.864 0 7.429-4.347 7.429-7.075 0-4.088-5.589-6.329-9.087-3.643m95.782.743c-5.884 4.628-1.327 12.524 5.135 8.897 3.233-1.815 5.048-6.301 3.531-8.725-1.573-2.512-5.589-2.592-8.666-.172" fill="#1976D2" fill-rule="evenodd"/><path fill-opacity=".053" d="M95.944 55.567c-.965 1.163-1.041 2.057-.278 3.267.914 1.449 3.669 1.701 21.192 1.937 11.078.149 20.142.539 20.142.866 0 .328-16.745 23.381-37.21 51.23-29.045 39.523-37.219 51.291-37.25 53.633l-.04 3h114l.335-2.365c.184-1.301-.176-2.876-.8-3.5-.802-.803-15.935-1.281-51.73-1.635l-50.597-.5 4.909-6.5 4.91-6.5 48.659-.5 48.66-.5 22.726-31c12.499-17.05 22.915-31.706 23.146-32.57.994-3.71-1.207-3.903-47.594-4.17l-45.196-.26 7.595-10.334c11.369-15.471 12.445-14.609-18.637-14.933-22.474-.234-25.776-.07-26.942 1.334M51.683 86.65c-1.395 1.396-.619 5.314 1.251 6.315C54.109 93.594 64.043 94 78.243 94c25.29 0 27.263-.375 26.602-5.056L104.5 86.5l-26.067-.266c-14.337-.147-26.374.041-26.75.416m57.945 26.061c-10.369 14.141-19.077 26.296-19.351 27.011-.406 1.056 7.609 1.251 42.817 1.039l43.316-.261 18.332-25c10.083-13.75 18.782-25.787 19.331-26.75.943-1.655-1.351-1.75-42.298-1.75H128.48l-18.852 25.711M28.2 102.2c-1.802 1.802-1.446 4.598.734 5.765 1.064.569 6.719 1.035 12.566 1.035s11.502-.466 12.566-1.035c2.18-1.167 2.536-3.963.734-5.765-1.659-1.659-24.941-1.659-26.6 0m36.467-.533c-1.087 1.086-.761 4.839.533 6.133 1.52 1.52 28.069 1.662 30.866.165 2.18-1.167 2.536-3.963.734-5.765-1.292-1.292-30.883-1.783-32.133-.533m75.773 1.784c-1.896 2.893-1.176 6.084 1.721 7.635 5.144 2.753 10.509-2.888 7.343-7.721-2.14-3.265-6.898-3.22-9.064.086m28.403-.487c-4.615 1.413-8.843 4.401-8.843 6.252 0 2.134.347 2.157 5.5.36 4.725-1.647 8.719-1.096 11.095 1.529 2.088 2.308 5.693 2.458 7.475.311 3.481-4.195-8.111-10.629-15.227-8.452m-43.485 12.546c-.321.837.631 3.098 2.134 5.069 10.89 14.277 30.282 15.175 45.148 2.089 2.398-2.111 4.36-4.264 4.36-4.784 0-2.354-3.568-1.833-9.769 1.425-14.068 7.392-22.278 7.175-33.216-.877-6.53-4.807-7.773-5.226-8.657-2.922m-90.787 4.061c-1.859 1.86-1.875 1.993-.536 4.495.982 1.834 2.345 1.934 26.3 1.934C86.492 126 88 125.773 88 121.835c0-3.371-3.373-3.835-27.863-3.835-20.48 0-24.224.23-25.566 1.571m9.037 14.964c-1.939 1.939-1.984 2.569-.342 4.814 1.848 2.527 19.471 2.027 21.123-.599.801-1.273.801-2.227 0-3.5-1.587-2.522-18.396-3.1-20.781-.715m21.027 41.538c-3.229 2.539-3.611 7.335-.707 8.888 3.612 1.934 9.072-1.627 9.072-5.916 0-5.133-3.87-6.508-8.365-2.972m97.382-.787c-1.366.691-2.932 2.532-3.48 4.09-.855 2.431-.665 3.102 1.344 4.729 3.097 2.507 3.754 2.413 7.196-1.028 3.295-3.295 3.641-5.216 1.352-7.506-1.889-1.888-3.135-1.943-6.412-.285" fill="#1976D2" fill-rule="evenodd"/><path fill-opacity=".219" d="M96.667 54.667c-.626.625-.963 5.098-.417 5.532.138.109 9.586.446 20.997.75l20.748.551-37.998 51.784C79.099 141.764 62 165.637 62 166.334c0 3.582 1.312 3.666 57.578 3.666 49.124 0 55.321-.174 56.492-1.584.953-1.149 1.026-2.041.263-3.25-.955-1.514-5.726-1.69-52.192-1.925-28.127-.143-51.141-.487-51.141-.765 0-.279 2.283-3.645 5.073-7.482l5.074-6.975 48.615-.26 48.616-.259 22.793-31c17.121-23.285 22.736-31.622 22.562-33.5l-.233-2.5-45.75-.26c-25.163-.143-45.75-.541-45.75-.885s2.868-4.502 6.373-9.24c9.089-12.288 9.272-12.633 7.694-14.534-1.131-1.363-4.713-1.581-26.023-1.581-13.591 0-25.011.3-25.377.667M51.93 87.584c-.953 1.149-1.026 2.041-.263 3.25C52.603 92.317 55.494 92.5 78 92.5s25.397-.183 26.333-1.666c.763-1.209.69-2.101-.263-3.25C102.935 86.217 99.367 86 78 86s-24.935.217-26.07 1.584m73.743 2.666C114.78 104.828 89 140.185 89 140.546c0 .25 19.688.454 43.75.453l43.75-.001 19-26.037c10.45-14.32 19.15-26.47 19.333-26.999.21-.606-15.757-.962-43.199-.962h-43.532l-2.429 3.25m-96.51 11.628c-.736.467-1.186 1.922-1 3.235.332 2.351.523 2.391 12.696 2.669 14.359.327 17.79-.991 13.57-5.211-1.244-1.243-3.907-1.568-12.75-1.556-6.149.009-11.781.397-12.516.863m35.877.574c-.663.799-1.05 2.261-.86 3.25.312 1.623 1.84 1.825 15.698 2.075 10.471.188 15.793-.089 16.737-.873 1.786-1.482 1.746-2.4-.186-4.333-2.224-2.223-29.557-2.327-31.389-.119m76.71-.372c-2.699 1.572-2.262 6.539.75 8.512 2.316 1.517 2.684 1.517 5 0 5.983-3.921.445-12.12-5.75-8.512m23.75 2.483c-4.485 2.319-6.133 4.204-4.822 5.515.79.79 1.941.653 4.157-.493 4.304-2.226 7.304-1.98 11.623.951 4.594 3.118 7.812 2.566 7.35-1.261-.635-5.266-11.718-8.118-18.308-4.712m-38.833 10.104c-1.571 1.57-.393 4.292 3.543 8.19 10.906 10.798 25.126 11.639 38.707 2.289 6.269-4.316 8.057-6.572 6.467-8.162-.761-.761-3.314.14-8.827 3.113-6.297 3.397-9.028 4.275-14.514 4.668-5.892.421-7.438.142-12.066-2.183-2.92-1.466-6.825-3.997-8.678-5.624-3.707-3.255-3.681-3.242-4.632-2.291m-92.358 5.969c-.345.9-.169 2.362.39 3.25.88 1.397 4.168 1.652 24.409 1.896 12.866.155 24.355.046 25.532-.241 2.625-.643 3.792-3.316 2.255-5.168-.912-1.098-6.225-1.373-26.549-1.373-22.601 0-25.478.181-26.037 1.636m9 15c-1.326 3.456 1.046 4.85 8.784 5.163 10.782.436 13.945-.931 12.269-5.299-.886-2.309-20.162-2.185-21.053.136m20.63 41.425c-3.833 3.833-.904 8.9 4.377 7.574 3.196-.802 5.065-3.98 4.25-7.228-.783-3.118-5.66-3.313-8.627-.346m96.685-.198c-2.532 2.798-1.827 7.537 1.184 7.964 1.269.18 3.433-.41 4.809-1.311 1.954-1.281 2.433-2.336 2.192-4.828-.266-2.74-.737-3.23-3.36-3.487-2.041-.199-3.638.351-4.825 1.662" fill="#1976D2" fill-rule="evenodd"/></svg>